SplineFontDB: 3.2
FontName: Zaz_Louz
FullName: Zaz Louz
FamilyName: Zaz Louz
Weight: Regular
Copyright: Copyright (c) 2024, oumaima
Version: 001.000
ItalicAngle: 0
UnderlinePosition: -100
UnderlineWidth: 50
Ascent: 800
Descent: 200
InvalidEm: 0
sfntRevision: 0x00010000
LayerCount: 2
Layer: 0 0 "Back" 1
Layer: 1 0 "Fore" 0
XUID: [1021 396 1464827555 5042286]
StyleMap: 0x0000
FSType: 0
OS2Version: 4
OS2_WeightWidthSlopeOnly: 0
OS2_UseTypoMetrics: 1
CreationTime: 1731334743
ModificationTime: 1732706411
PfmFamily: 17
TTFWeight: 400
TTFWidth: 5
LineGap: 90
VLineGap: 0
Panose: 2 0 5 3 0 0 0 0 0 0
OS2TypoAscent: 800
OS2TypoAOffset: 0
OS2TypoDescent: -200
OS2TypoDOffset: 0
OS2TypoLinegap: 90
OS2WinAscent: 719
OS2WinAOffset: 0
OS2WinDescent: 200
OS2WinDOffset: 0
HheadAscent: 719
HheadAOffset: 0
HheadDescent: -200
HheadDOffset: 0
OS2SubXSize: 650
OS2SubYSize: 700
OS2SubXOff: 0
OS2SubYOff: 140
OS2SupXSize: 650
OS2SupYSize: 700
OS2SupXOff: 0
OS2SupYOff: 480
OS2StrikeYSize: 49
OS2StrikeYPos: 258
OS2CapHeight: 660
OS2XHeight: 397
OS2Vendor: 'PfEd'
OS2CodePages: 00000001.00000000
OS2UnicodeRanges: 00000001.00000000.00000000.00000000
Lookup: 4 0 1 "'liga' Standard Ligatures in Latin lookup 0" { "'liga' Standard Ligatures in Latin lookup 0 subtable"  } ['liga' ('DFLT' <'dflt' > 'latn' <'dflt' > ) ]
Lookup: 258 0 0 "'kern' Horizontal Kerning in Latin lookup 0" { "'kern' Horizontal Kerning in Latin lookup 0 per glyph data 0" [150,15,0] "'kern' Horizontal Kerning in Latin lookup 0 per glyph data 1" [150,15,0] } ['kern' ('DFLT' <'dflt' > 'latn' <'dflt' > ) ]
MarkAttachClasses: 1
DEI: 91125
LangName: 1033 "" "" "" "" "" "Version 001.000"
Encoding: UnicodeBmp
Compacted: 1
UnicodeInterp: none
NameList: AGL For New Fonts
DisplaySize: -48
AntiAlias: 1
FitToEm: 0
WinInfo: 0 19 5
BeginPrivate: 6
BlueValues 23 [50 50 397 398 660 660]
BlueShift 1 0
StdHW 4 [48]
StdVW 4 [48]
StemSnapH 30 [5 22 30 34 38 43 48 53 77 93]
StemSnapV 4 [48]
EndPrivate

StartChar: exclam
Encoding: 33 33 1
Width: 98
GlyphClass: 2
Flags: MW
HStem: 50 77 640 20G<69 69>
VStem: 25 48<219 226 226 402 402 582 582 612 612 612>
LayerCount: 2
Fore
SplineSet
73 402 m 1
 73 226 l 2
 73 212 73 197 63 180 c 0
 54 167 47 160 38 152 c 1
 25 152 l 1
 25 582 l 1
 25 612 l 1
 45 635 49 640 69 660 c 1
 73 655 l 1
 73 402 l 1
25 83 m 0
 24 105 33 124 46 127 c 0
 59 130 71 116 73 94 c 0
 73 83 71 72 67 64 c 0
 63 57 58 52 52 50 c 0
 45 49 39 52 34 58 c 0
 29 64 26 73 25 83 c 0
EndSplineSet
EndChar

StartChar: quotedbl
Encoding: 34 34 2
Width: 190
GlyphClass: 2
Flags: MW
HStem: 512 134<25 38 25 25 25 130 25 117> 640 20G<69 69 161 161>
VStem: 25 48<532 534 534 585 585 637 637 646 646 646> 117 48<532 534 534 585 585 637 637 646 646 646>
LayerCount: 2
Fore
SplineSet
165 585 m 1x70
 165 534 l 2
 165 530 165 525 154 520 c 0
 146 517 138 515 130 512 c 2
 117 512 l 1
 117 637 l 1
 117 646 l 1xb0
 137 653 141 654 161 660 c 1
 165 658 l 1
 165 585 l 1x70
73 585 m 1
 73 534 l 2
 73 530 73 525 63 520 c 0
 55 517 47 515 38 512 c 2
 25 512 l 1
 25 637 l 1
 25 646 l 1xb0
 45 653 49 654 69 660 c 1x70
 73 658 l 1
 73 585 l 1
EndSplineSet
EndChar

StartChar: numbersign
Encoding: 35 35 3
Width: 574
GlyphClass: 2
Flags: MW
HStem: 50 21G<112 125 112 112 306 319 306 306> 50 21G<112 125 112 112 306 319 306 306> 274 49<74 152 74 74 209 345 25 201 403 472 472 479.5> 472 48<74 106 74 74 106 187 25 236 244 380 437 472 472 479.5> 640 20G<265 269 269 269 458 462 462 462>
LayerCount: 2
Fore
SplineSet
429 472 m 1xb8
 429 472 404 333 403 323 c 1
 472 323 l 2
 487 323 503 323 520 312 c 0
 533 304 540 296 549 287 c 1
 549 274 l 1
 394 274 l 1
 391 256 369 134 369 134 c 2
 366 116 363 98 349 80 c 0
 338 66 329 59 319 50 c 1
 306 50 l 1
 345 274 l 1
 201 274 l 1
 198 256 176 134 176 134 c 2
 173 116 170 98 156 80 c 0
 145 66 136 59 125 50 c 1
 112 50 l 1
 152 274 l 1
 74 274 l 1
 51 294 46 298 25 319 c 1
 25 323 l 1
 160 323 l 1
 187 472 l 1
 106 472 l 1
 74 472 l 1
 51 492 46 496 25 516 c 1
 25 520 l 1
 195 520 l 1
 195 520 210 603 211 610 c 1
 235 634 241 639 265 660 c 1
 269 660 l 1
 244 520 l 1
 389 520 l 1
 398 573 l 2
 399 580 403 603 404 610 c 1
 429 634 434 639 458 660 c 1
 462 660 l 1
 437 520 l 1
 472 520 l 2
 487 520 503 520 520 510 c 0
 533 502 540 494 549 485 c 1
 549 472 l 1
 429 472 l 1xb8
354 323 m 1
 380 472 l 1
 236 472 l 1
 236 472 211 333 209 323 c 1
 354 323 l 1
EndSplineSet
EndChar

StartChar: dollar
Encoding: 36 36 4
Width: 318
GlyphClass: 2
Flags: MW
HStem: 50 21G<135 148 135 135> 50 21G<135 148 135 135> 397 34<131 188 188 244> 640 20G<179 179>
VStem: 247 46<312 397>
LayerCount: 2
Fore
SplineSet
244 431 m 1xb8
 273 427 293 414 293 390 c 0
 293 234 241 140 181 110 c 1
 180 102 177 93 173 84 c 0
 164 68 157 60 148 50 c 1
 135 50 l 1
 135 97 l 1
 93 93 52 111 28 145 c 1
 35 150 l 1
 112 124 247 180 247 397 c 1
 68 397 l 1
 25 430 68 398 25 431 c 1
 29 431 l 1
 63 431 l 1
 33 474 19 501 36 533 c 0
 45 550 66 571 92 586 c 0
 106 594 121 599 135 603 c 1
 155 630 159 636 179 660 c 1
 183 653 l 1
 183 606 l 1
 193 606 203 603 212 600 c 0
 257 585 280 556 293 513 c 1
 280 507 l 1
 259 526 236 538 209 547 c 0
 153 566 96 560 87 543 c 0
 77 525 68 506 89 478 c 0
 97 467 117 447 131 431 c 1
 188 431 l 1
 244 431 l 1xb8
EndSplineSet
EndChar

StartChar: percent
Encoding: 37 37 5
Width: 378
GlyphClass: 2
Flags: MW
HStem: 50 21G<38 38> 50 21G<38 38>
VStem: 203 19
LayerCount: 2
Fore
SplineSet
210 311 m 2xa0
 201 293 173 238 152 196 c 2
 111 116 l 2
 103 100 95 84 76 70 c 0
 61 60 51 55 38 50 c 1
 25 54 l 1
 269 533 l 2
 272 539 283 560 286 567 c 1
 317 583 315 581 344 594 c 1
 353 592 l 1
 210 311 l 2xa0
167 582 m 1
 206 536 180 411 56 408 c 1
 56 594 139 623 167 582 c 1
74 430 m 1
 139 446 168 521 165 569 c 1
 133 592 80 547 74 430 c 1
315 266 m 1
 353 221 327 96 203 93 c 1
 203 278 286 308 315 266 c 1
222 114 m 1
 286 130 316 206 312 253 c 1
 280 277 227 231 222 114 c 1
EndSplineSet
EndChar

StartChar: ampersand
Encoding: 38 38 6
Width: 480
GlyphClass: 2
Flags: MW
HStem: 50 21G<415 455 415 415> 50 21G<415 455 415 415>
LayerCount: 2
Fore
SplineSet
399.004882812 368 m 1x80
 455.004882812 322 480 228 418 155 c 1
 433 127 446 102 455 86 c 1
 455 50 l 1
 415 50 l 1
 403 65 389 92 373 116 c 1
 319 80 211 34 118 56 c 1
 -119 133 166 351 214 389 c 1
 194 419 200 408 191 423 c 0
 186 429 182 435 178 441 c 1
 178 442 l 1
 118 544 149 666 254 660 c 1
 387 608 379 471 273 400 c 1
 274 399 332 318 381 226 c 1
 405 271 406 320 393 359 c 1
 399.004882812 368 l 1x80
251 635 m 1
 226 621 185 584 207 512 c 0
 214 490 238 453 255 429 c 1
 256 429 l 1
 286 467 341 554 279 615 c 0
 271 624 261 630 251 635 c 1
84 173 m 1
 129 56 294 136 338 173 c 1
 286 258 246 331 230 359 c 1
 88 248 84 206 84 173 c 1
EndSplineSet
EndChar

StartChar: quotesingle
Encoding: 39 39 7
Width: 77
GlyphClass: 2
Flags: MW
HStem: 566 95<32 37 32 32>
VStem: 25 14<637 661 661 661>
LayerCount: 2
Fore
SplineSet
52 577 m 1
 37 566 l 1
 32 566 l 1
 25 637 l 1
 25 661 l 1
 39 661 l 1
 52 577 l 1
EndSplineSet
EndChar

StartChar: parenleft
Encoding: 40 40 8
Width: 253
GlyphClass: 2
Flags: MW
HStem: 51 21G<208 228 208 208> 51 21G<208 228 208 208> 641 20G<208 228 228 228>
VStem: 58 17<327 332 327 332> 93 18<327 331>
LayerCount: 2
Fore
SplineSet
93 385 m 2x38
 87 422 l 2
 86 425 82 425 81 422 c 2
 75 385 l 2
 74 380 68 376 63 378 c 2
 58 380 l 1
 63 496 110 596 208 661 c 1
 228 661 l 1
 222 645 l 1
 158 592 117 491 111 381 c 1
 105 378 l 2
 100 376 94 380 93 385 c 2x38
75 327 m 2
 81 290 l 2
 82 287 86 287 87 290 c 2
 93 327 l 2
 94 332 100 336 105 334 c 2
 111 331 l 1
 116 221 155 122 222 66 c 1
 228 51 l 1
 208 51 l 1xb8
 109 116 63 216 58 332 c 1
 63 334 l 2
 68 336 74 332 75 327 c 2
26 325 m 2
 54 349 l 2
 56 350 57 354 57 356 c 1
 57 348 57 339 58 332 c 1
 28 321 l 2
 26 320 23 323 26 325 c 2
54 363 m 2
 26 387 l 2
 23 389 26 392 28 391 c 2
 58 380 l 1
 57 373 57 364 57 356 c 1
 57 358 56 362 54 363 c 2
140 391 m 2
 142 392 144 389 142 387 c 2
 114 363 l 2
 112 361 111 358 111 356 c 1
 111 381 l 1
 140 391 l 2
114 349 m 2
 142 325 l 2
 144 323 142 320 140 321 c 2
 111 331 l 1
 111 356 l 1
 111 354 112 351 114 349 c 2
EndSplineSet
EndChar

StartChar: parenright
Encoding: 41 41 9
Width: 253
GlyphClass: 2
Flags: MW
HStem: 50 21G<25 45 25 25> 50 21G<25 45 25 25> 641 20G<25 45 45 45>
VStem: 142 18<326 331 326 331 326 356> 178 17<326 331>
LayerCount: 2
Fore
SplineSet
160 385 m 2x38
 159 379 153 376 148 378 c 2
 142 380 l 1
 136 490 95 592 31 645 c 1
 25 661 l 1
 45 661 l 1
 143 596 190 496 195 380 c 1
 190 378 l 2
 185 376 179 379 178 385 c 2
 172 421 l 2
 171 424 167 424 166 421 c 2
 160 385 l 2x38
178 326 m 2
 179 332 185 335 190 333 c 2
 195 331 l 1
 190 216 144 116 45 50 c 1
 25 50 l 1xb8
 31 66 l 1
 98 122 137 221 142 331 c 1
 148 333 l 2
 153 335 159 332 160 326 c 2
 166 290 l 2
 167 287 171 287 172 290 c 2
 178 326 l 2
227 325 m 2
 230 323 227 319 225 320 c 2
 195 331 l 1
 196 339 196 348 196 356 c 1
 196 354 197 350 199 349 c 2
 227 325 l 2
199 363 m 2
 197 361 196 358 196 356 c 1
 196 363 196 372 195 380 c 1
 225 391 l 2
 227 392 230 388 227 386 c 2
 199 363 l 2
113 391 m 2
 142 380 l 1
 142 356 l 1
 142 358 141 361 139 363 c 2
 111 386 l 2
 109 388 111 392 113 391 c 2
139 349 m 2
 141 351 142 354 142 356 c 1
 142 331 l 1
 113 320 l 2
 111 319 109 323 111 325 c 2
 139 349 l 2
EndSplineSet
EndChar

StartChar: asterisk
Encoding: 42 42 10
Width: 169
GlyphClass: 2
Flags: MW
HStem: 566 53<68 68.5 100.5 101>
VStem: 69 31<565 565 619.5 620>
LayerCount: 2
Fore
SplineSet
89 657 m 2
 100 620 l 2
 100 619 100 619 101 619 c 2
 138 628 l 2
 143 630 146 624 142 620 c 2
 116 593 l 2
 115 593 115 592 116 592 c 2
 142 564 l 2
 146 561 143 555 138 556 c 2
 101 566 l 2
 100 566 100 565 100 565 c 1
 89 528 l 2
 88 523 81 523 80 528 c 2
 69 565 l 1
 69 565 69 566 68 566 c 2
 31 556 l 2
 26 555 23 561 27 564 c 2
 53 592 l 2
 54 592 54 593 53 593 c 2
 27 620 l 2
 23 624 26 630 31 628 c 2
 68 619 l 2
 69 619 69 619 69 620 c 2
 80 657 l 2
 81 661 88 661 89 657 c 2
EndSplineSet
EndChar

StartChar: plus
Encoding: 43 43 11
Width: 191
GlyphClass: 2
Flags: MW
HStem: 50 21G<81 89 81 81> 50 21G<81 89 81 81> 111 28<46 81 46 81 25 81 110 144 144 153>
VStem: 81 29<70 72 72 111 139 175 175 184 184 184>
LayerCount: 2
Fore
SplineSet
110 139 m 1xb0
 166 139 l 1
 166 137 l 1
 160 125 159 122 153 111 c 1
 144 111 l 1
 110 111 l 1
 110 72 l 2
 110 68 110 63 104 59 c 0
 99 55 94 52 89 50 c 2
 81 50 l 1
 81 111 l 1
 25 111 l 1
 25 118 l 2
 28 123 29 128 33 133 c 0
 38 139 42 139 46 139 c 2
 81 139 l 1
 81 175 l 1
 81 184 l 1
 93 190 96 192 108 198 c 1
 110 196 l 1
 110 139 l 1xb0
EndSplineSet
EndChar

StartChar: comma
Encoding: 44 44 12
Width: 131
GlyphClass: 2
Flags: MW
HStem: -9 5<25 26>
VStem: 87 19<33.5 68.5>
LayerCount: 2
Fore
SplineSet
93 86 m 1
 93 86 106 80 106 57 c 0
 107 13 73 -20 25 -9 c 1
 26 -4 l 1
 54 -6 87 19 87 48 c 0
 87 50 86 52 84 53 c 0
 52 63 68 102 93 86 c 1
EndSplineSet
EndChar

StartChar: hyphen
Encoding: 45 45 13
Width: 289
GlyphClass: 2
Flags: MW
HStem: 373 48<82 175 175 183.5 32 264 82 82>
VStem: 25 239<373 418>
LayerCount: 2
Fore
SplineSet
32 421 m 1
 175 421 l 2
 192 421 210 421 230 411 c 0
 246 403 254 395 264 386 c 1
 264 373 l 1
 82 373 l 1
 55 393 49 397 25 418 c 1
 32 421 l 1
EndSplineSet
EndChar

StartChar: period
Encoding: 46 46 14
Width: 98
GlyphClass: 2
Flags: MW
HStem: 50 51<46 52.5 46 55.5>
VStem: 25 48<69 79.5>
LayerCount: 2
Fore
SplineSet
73 76 m 0
 73 62 62 50 49 50 c 0
 36 50 25 62 25 76 c 0
 25 83 28 90 33 95 c 0
 37 99 43 101 49 101 c 0
 56 101 62 98 66 93 c 0
 70 89 73 83 73 76 c 0
EndSplineSet
EndChar

StartChar: slash
Encoding: 47 47 15
Width: 319
GlyphClass: 2
Flags: MW
HStem: 50 21G<25 40 25 25> 50 21G<25 40 25 25> 640 20G<285 294 294 294>
VStem: 25 269
LayerCount: 2
Fore
SplineSet
294 660 m 1xb0
 104 125 l 2
 98 108 92 90 75 75 c 0
 62 62 51 57 40 50 c 1
 25 50 l 1
 25 50 228 619 230 626 c 1
 259 645 257 643 285 660 c 1
 294 660 l 1xb0
EndSplineSet
EndChar

StartChar: zero
Encoding: 48 48 16
Width: 376
GlyphClass: 2
Flags: MW
HStem: 50 21G 50 21G
LayerCount: 2
Fore
SplineSet
251.92578125 659 m 0x80
 428.92578125 618 357 138 130 50 c 1
 -13 160 -10 588 140 649 c 0
 164 660 187 659 188 659 c 0
 209 661 230.92578125 660 251.92578125 659 c 0x80
128 105 m 1
 396 342 266 622 229 649 c 1
 152 660 -13 323 128 105 c 1
EndSplineSet
EndChar

StartChar: one
Encoding: 49 49 17
Width: 98
GlyphClass: 2
Flags: MW
HStem: 50 21G<25 38 25 25> 50 21G<25 38 25 25> 640 20G<69 69>
VStem: 25 48<130.5 139 139 350 350 566 566 603 603 603>
LayerCount: 2
Fore
SplineSet
73 350 m 1xb0
 73 139 l 2
 73 122 73 104 63 84 c 0
 54 68 47 60 38 50 c 1
 25 50 l 1
 25 566 l 1
 25 603 l 1
 45 630 49 636 69 660 c 1
 73 653 l 1
 73 350 l 1xb0
EndSplineSet
EndChar

StartChar: two
Encoding: 50 50 18
Width: 366
GlyphClass: 2
Flags: MW
HStem: 397 40<83 97> 640 20G
VStem: 25 55
LayerCount: 2
Fore
SplineSet
333 114 m 1
 341 108 l 1
 259 -4 25 24 25 388 c 0
 25 416 49 432 83 437 c 1
 150 437 l 1
 159 437 l 1
 78 530 107 645 244 660 c 1
 403 548 238 427 232 422 c 0
 218 410 241 430 205 398 c 0
 200 398 114 397 80 397 c 1
 55 88 244 74 333 114 c 1
209 625 m 0
 136 583 165 487 183 444 c 1
 206 462 238 491 249 509 c 0
 289 572 260 616 240 637 c 1
 229 634 219 630 209 625 c 0
EndSplineSet
EndChar

StartChar: three
Encoding: 51 51 19
Width: 366
GlyphClass: 2
Flags: MW
HStem: 397 40<73 216 216 217 26 286 73 73>
VStem: 286 55<397 397>
LayerCount: 2
Fore
SplineSet
283 437 m 1
 317 432 341 416 341 388 c 0
 341 24 107 -4 25 108 c 1
 33 114 l 1
 173 57 304 129 286 397 c 1
 73 397 l 1
 25 433 l 1
 26 437 l 1
 216 437 l 1
 217 437 l 1
 231 456 250 491 259 505 c 0
 278 540 270 562 261 584 c 0
 253 603 199 612 147 589 c 0
 121 578 100 563 80 541 c 1
 68 547 l 1
 80 599 102 634 144 652 c 0
 178 667 218 661 256 635 c 0
 280 617 300 592 309 571 c 0
 325 532 314 491 283 437 c 1
EndSplineSet
EndChar

StartChar: four
Encoding: 52 52 20
Width: 319
GlyphClass: 2
Flags: MW
HStem: 50 21G<246 259 246 246> 50 21G<246 259 246 246> 402 39 640 20G<290 290>
VStem: 246 48<130.5 139 130.5 398>
LayerCount: 2
Fore
SplineSet
294.008789062 653 m 1xb8
 294 139 l 2
 294 122 294 104 284 84 c 0
 275 68 268 60 259 50 c 1
 246 50 l 1
 246 398 l 1
 205 398 117 400 87 402 c 0
 63 404 52 410 45 415 c 0
 37 421 30 428 28 436 c 0
 24 448 22 464 35 475 c 0
 92 521 189 589 224 615 c 1
 217 637 l 2
 216 639 217 637 214 646 c 1
 244 646 l 1
 248 639 251 631 253 622 c 2
 255 615 l 1
 268 632 273 640 290 660 c 1
 294.008789062 653 l 1xb8
65 441 m 1
 110 438 205 436 246 436 c 1
 246.008789062 566 l 2
 246.008789062 570 246 586 246 586 c 1
 119 492 l 1
 140 483 l 1
 65 442 l 1
 65 441 l 1
EndSplineSet
EndChar

StartChar: five
Encoding: 53 53 21
Width: 366
GlyphClass: 2
Flags: MW
HStem: 622 38<205 205>
VStem: 25 316<108 388 206 434>
LayerCount: 2
Fore
SplineSet
111 437 m 1
 111 437 236 477 341 388 c 1
 341 24 107 -4 25 108 c 1
 34 114 l 1
 174 54 300 126 286 397 c 1
 73 397 l 1
 24 434 74 397 25 434 c 1
 27 437 l 1
 67 437 l 1
 83 498 64 656 206 660 c 1
 208 660 l 1
 212 660 l 1
 213 660 l 2
 230 659 246 658 263 657 c 0
 293 656 307 650 316 645 c 0
 326 638 335 631 338 624 c 0
 343 611 343 597 329 585 c 0
 329 584 328 584 327 583 c 0
 315 573 296 562 278 562 c 1
 266 572 253 581 240 591 c 1
 247 593 l 1
 260 591 279 593 290 617 c 1
 290 619 l 1
 259 620 232 621 205 622 c 0
 113 617 121 495 111 437 c 1
EndSplineSet
EndChar

StartChar: six
Encoding: 54 54 22
Width: 307
GlyphClass: 2
Flags: MW
HStem: 50 21G<25 38 25 25> 50 21G<25 38 25 25>
VStem: 25 48<105 460 105 523 105 581.5>
LayerCount: 2
Fore
SplineSet
217 326 m 1xa0
 340 300 271 76 158 54 c 0
 140 50 87 42 54 70 c 1
 49 62 44 56 38 50 c 1
 25 50 l 1
 25 523 l 2
 25 525 25 423 25 529 c 0
 25 634 127 666 184 657 c 0
 218 652 250 637 282 608 c 1
 272 588 l 1
 250 602 229 611 211 614 c 0
 172 621 118 616 94 578 c 0
 72 542 74 518 74 460 c 1
 73 460 l 1
 73 105 l 1
 121 88 154 95 154 95 c 1
 65 189 76 311 217 326 c 1xa0
172 108 m 1
 273 176 232 283 213 303 c 1
 202 301 191 297 182 291 c 0
 108 249 172 108 172 108 c 1
EndSplineSet
EndChar

StartChar: seven
Encoding: 55 55 23
Width: 366
GlyphClass: 2
Flags: MW
HStem: 50 21G<246 259 246 246> 50 21G<246 259 246 246> 397 39<197 246> 559 32<79 119> 622 38
VStem: 246 48<130.5 139 139 397 397 397 437 566 566 622 622 622>
LayerCount: 2
Fore
SplineSet
341 433 m 1xbc
 327 421 310 409 294 398 c 1
 294 139 l 2
 294 122 294 104 283 84 c 0
 275 68 267 60 259 50 c 1
 246 50 l 1
 246 397 l 1
 246 397 138 398 82 398 c 1
 78 403 l 1
 93 416 109 428 126 439 c 1
 148 438 173 437 197 436 c 2
 246 436 l 1
 246 566 l 1
 246 622 l 1
 228 621 l 2
 176 621 132 619 76 616 c 1
 75 615 l 1
 87 591 106 588 119 591 c 1
 126 588 l 1
 113 579 100 569 88 559 c 1
 70 559 51 570 39 581 c 0
 38 581 37 582 37 582 c 1
 23 594 23 609 28 621 c 0
 31 629 40 636 50 642 c 0
 59 647 73 653 103 655 c 0
 141 657 176 658 228 659 c 2
 290 660 l 1
 294 660 l 1
 294 437 l 1
 337 437 l 1
 341 433 l 1xbc
EndSplineSet
EndChar

StartChar: eight
Encoding: 56 56 24
Width: 366
GlyphClass: 2
Flags: MW
HStem: 50 21G 50 21G 397 21G<158 158 224 224> 640 20G
LayerCount: 2
Fore
SplineSet
234 397 m 1xb0
 410 356 363 138 136 50 c 1
 -8 160 -16 336 134 397 c 1
 29 498 48 637 216 660 c 1
 356 644 355 487 234 397 c 1xb0
180 620 m 0
 78 566 158 397 158 397 c 1
 226 416 341 577 224 636 c 1
 208 632 194 627 180 620 c 0
247 202 m 0
 313 292 260 369 224 397 c 1
 224 397 -8 323 134 105 c 1
 134 104 l 1
 173 132 228 175 247 202 c 0
EndSplineSet
EndChar

StartChar: nine
Encoding: 57 57 25
Width: 307
GlyphClass: 2
Flags: MW
HStem: 639 20G<269 282 282 282>
VStem: 234 48<249 604 604 604>
LayerCount: 2
Fore
SplineSet
90 384 m 1
 -33 409 36 633 149 656 c 0
 167 659 220 667 253 640 c 1
 258 647 263 653 269 659 c 1
 282 659 l 1
 282 186 l 2
 282 184 282 286 282 181 c 0
 282 75 180 43 123 52 c 0
 89 57 57 72 25 101 c 1
 35 122 l 1
 57 107 78 98 96 95 c 0
 135 88 189 93 213 132 c 0
 235 167 233 191 233 249 c 1
 234 249 l 1
 234 604 l 1
 186 621 153 615 153 615 c 1
 242 520 231 399 90 384 c 1
135 601 m 1
 34 533 75 427 94 406 c 1
 105 409 116 413 125 418 c 0
 199 460 135 601 135 601 c 1
EndSplineSet
EndChar

StartChar: colon
Encoding: 58 58 26
Width: 98
GlyphClass: 2
Flags: MW
HStem: 50 51<46 52.5 46 55.5> 131 51<46 52.5 46 55.5>
VStem: 25 48<68.5 79 68.5 79.5 150 160.5>
LayerCount: 2
Fore
SplineSet
73 76 m 0
 73 61 62 50 49 50 c 0
 36 50 25 61 25 76 c 0
 25 83 28 90 33 95 c 0
 37 99 43 101 49 101 c 0
 56 101 62 98 66 93 c 0
 70 89 73 82 73 76 c 0
73 157 m 0
 73 143 62 131 49 131 c 0
 36 131 25 143 25 157 c 0
 25 164 28 171 33 176 c 0
 37 180 43 182 49 182 c 0
 56 182 62 179 66 175 c 0
 70 170 73 164 73 157 c 0
EndSplineSet
EndChar

StartChar: semicolon
Encoding: 59 59 27
Width: 138
GlyphClass: 2
Flags: MW
HStem: -17 5<25 26> 133 51<86 92.5 86 95.5>
VStem: 65 48<151 161.5> 93 20<24.5 60>
LayerCount: 2
Fore
SplineSet
113 158 m 0xe0
 113 144 102 133 89 133 c 0
 76 133 65 144 65 158 c 0
 65 166 69 173 73 177 c 0
 78 181 83 184 89 184 c 0
 96 184 102 181 106 176 c 0
 110 171 113 165 113 158 c 0xe0
99 78 m 1
 99 78 113 72 113 48 c 0
 114 4 77 -29 25 -17 c 1
 26 -12 l 1
 57 -15 93 10 93 39 c 0xd0
 93 41 91 43 89 44 c 0
 54 54 71 94 99 78 c 1
EndSplineSet
EndChar

StartChar: less
Encoding: 60 60 28
Width: 324
GlyphClass: 2
Flags: MW
VStem: 25 274<150 276>
LayerCount: 2
Fore
SplineSet
282 441 m 1
 294 397 l 1
 253 370 l 1
 107 276 l 1
 258 177 l 1
 299 150 l 1
 284 108 l 1
 25 276 l 1
 282 441 l 1
EndSplineSet
EndChar

StartChar: equal
Encoding: 61 61 29
Width: 228
GlyphClass: 2
Flags: MW
HStem: 142 49<45 173 173 175.5 27 203 45 45> 226 49<45 173 173 175.5 27 203 45 45>
VStem: 45 158<142 155 142 226>
LayerCount: 2
Fore
SplineSet
27 275 m 1
 173 275 l 2
 178 275 185 275 191 264 c 0
 197 256 199 248 203 239 c 1
 203 226 l 1
 45 226 l 1
 36 246 33 250 25 271 c 1
 27 275 l 1
27 191 m 1
 173 191 l 2
 178 191 185 191 191 180 c 0
 197 172 199 164 203 155 c 1
 203 142 l 1
 45 142 l 1
 36 162 33 166 25 187 c 1
 27 191 l 1
EndSplineSet
EndChar

StartChar: greater
Encoding: 62 62 30
Width: 324
GlyphClass: 2
Flags: MW
HStem: 134 332<40 42>
VStem: 25 274<175 301>
LayerCount: 2
Fore
SplineSet
42 466 m 1
 299 301 l 1
 40 134 l 1
 25 175 l 1
 66 202 l 1
 217 301 l 1
 71 396 l 1
 30 422 l 1
 42 466 l 1
EndSplineSet
EndChar

StartChar: question
Encoding: 63 63 31
Width: 298
GlyphClass: 2
Flags: MW
HStem: 54 39 117 43<119.5 123>
VStem: 100 48<137 143 137 145 254.5 263 263 370 370 379>
LayerCount: 2
Fore
SplineSet
100 69 m 0
 99 80 108 91 121 93 c 0
 134 95 146 87 147 75 c 0
 148 68 146 62 141 58 c 0
 138 54 133 51 127 50 c 0
 120 49 114 51 109 54 c 0
 104 58 101 63 100 69 c 0
100 139 m 0
 100 151 111 160 124 160 c 0
 138 159 148 149 148 137 c 0
 147 131 144 125 139 121 c 0
 135 118 129 116 123 117 c 0
 116 117 111 119 106 124 c 0
 102 128 100 133 100 139 c 0
25 596 m 1
 231 814 397 406 148 379 c 1
 148 263 l 2
 148 246 148 228 138 208 c 0
 129 193 121 184 113 174 c 1
 100 174 l 1
 100 370 l 1
 100 412 l 1
 368 470 131 735 25 528 c 1
 25 596 l 1
EndSplineSet
EndChar

StartChar: at
Encoding: 64 64 32
Width: 627
GlyphClass: 2
Flags: MW
HStem: 160 30<241 343> 333 28<298.5 326.5> 410 30<284 386 284 387.5>
VStem: 25 13<297 298.5> 253 25<296.5 322> 589 13<301.5 303>
LayerCount: 2
Fore
SplineSet
601 319 m 0
 602 316 602 313 602 309 c 0
 602 294 598 281 590 269 c 0
 518 198 400 160 286 160 c 0
 196 160 110 184 53 232 c 1
 42 248 36 261 26 281 c 0
 25 284 25 287 25 291 c 0
 25 306 29 319 37 331 c 0
 109 402 227 440 341 440 c 0
 431 440 517 416 574 368 c 1
 585 352 591 339 601 319 c 0
584 292 m 0
 589 297 589 299 589 302 c 0
 589 304 587 305 586 307 c 0
 522 374 440 410 335 410 c 0
 230 410 121 376 43 308 c 0
 38 303 38 301 38 298 c 0
 38 296 40 295 41 293 c 0
 105 226 187 190 292 190 c 0
 397 190 506 224 584 292 c 0
278 319 m 0
 278 301 311 294 334 294 c 0
 347 294 361 295 374 296 c 1
 374 295 l 1
 369 285 364 276 359 268 c 1
 320 262 285 252 257 239 c 1
 256 240 l 1
 265 256 l 2
 269 261 277 267 283 269 c 1
 283 270 l 1
 265 276 253 288 253 305 c 0
 253 315 260 329 271 339 c 0
 284 352 303 361 319 361 c 0
 334 361 344 352 344 342 c 0
 344 332 337 324 331 317 c 1
 330 317 l 1
 326 325 322 331 318 332 c 0
 315 333 310 333 305 333 c 0
 292 333 278 325 278 319 c 0
EndSplineSet
EndChar

StartChar: A
Encoding: 65 65 33
Width: 382
GlyphClass: 2
Flags: MW
HStem: 50 21G<40 52 40 40 243 256 243 243> 50 21G<40 52 40 40 243 256 243 243> 640 20G<40 70.5>
VStem: 40 48<131 140 140 374 523 612> 243 48<131 140 140 274>
LayerCount: 2
Fore
SplineSet
291 322 m 1xb8
 348 278 291 323 348 278 c 1
 341 274 l 1
 291 274 l 1
 291 140 l 2
 291 122 291 104 281 84 c 0
 272 68 264 60 256 50 c 1
 243 50 l 1
 243 274 l 1
 173 287 122 330 88 374 c 1
 88 140 l 2
 88 122 88 104 78 84 c 0
 69 69 61 60 52 50 c 1
 40 50 l 1
 40 660 l 1
 101 660 277 629 291 323 c 1
 291 322 l 1xb8
88 612 m 1
 88 434 112 374 243 322 c 1
 232 538 140 581 88 612 c 1
EndSplineSet
EndChar

StartChar: B
Encoding: 66 66 34
Width: 333
GlyphClass: 2
Flags: MW
HStem: 50 21G<25 25> 50 21G<25 25> 364 49<73 73> 640 20G<69 69>
VStem: 25 48<286 332 332 364 413 416 573 603 603 603>
LayerCount: 2
Fore
SplineSet
272 353 m 1xb8
 357 274 299 55 25 50 c 1
 25 52 l 1
 25 332 l 1
 25 566 l 1
 25 603 l 1
 69 660 l 1
 73 653 l 1
 73 573 l 1
 126 671 214 678 253 634 c 1
 324 566 274 398 73 364 c 1
 73 286 l 1
 132 395 229 402 272 353 c 1xb8
247 613 m 1
 194 621 84 602 73 416 c 1
 73 413 l 1
 208 438 248 542 247 613 c 1
73 101 m 1
 257 138 265 247 265 330 c 1
 169 350 92 316 73 101 c 1
EndSplineSet
EndChar

StartChar: C
Encoding: 67 67 35
Width: 306
GlyphClass: 2
Flags: MW
HStem: 640 20G<69 69>
VStem: 25 48<564 580 564 603 564 603>
LayerCount: 2
Fore
SplineSet
264 152 m 1
 273 140 l 1
 175 -27 31 0 25 558 c 1
 25 603 l 1
 69 660 l 1
 73 653 l 1
 73 631 l 1
 287 726 304 560 264 494 c 1
 261 499 l 1
 247 570 256 660 73 580 c 1
 73 564 l 1
 79 189 134 17 264 152 c 1
EndSplineSet
EndChar

StartChar: D
Encoding: 68 68 36
Width: 338
GlyphClass: 2
Flags: MW
HStem: 50 21G<14 28 14 14> 50 21G<14 28 14 14> 612 48<14 22 62 62 62 254 254 263>
VStem: 14 38<84 85 84 142> 14 48<119 119 119 139 139 142 142 143 143 566 566 612> 276 48<423.5 590 337 612>
LayerCount: 2
Fore
SplineSet
304 648 m 0xb4
 320 636 322 628 324 590 c 0
 324 84 152 -15 52 85 c 1
 52 84 l 1
 44 68 36 60 28 50 c 1
 14 50 l 1xb4
 14 142 l 1
 14 143 l 1
 14 566 l 1
 14 612 l 1xac
 14 660 l 1
 22 660 l 1
 58 660 l 1
 60 660 l 1
 254 660 l 2
 272 660 288 660 304 648 c 0xb4
62 119 m 1x2c
 194 34 276 235 276 612 c 1
 62 612 l 1
 62 139 l 1
 62 119 l 1x2c
EndSplineSet
EndChar

StartChar: E
Encoding: 69 69 37
Width: 318
GlyphClass: 2
Flags: MW
HStem: 50 21G 50 21G 375 48<78 78 127 235 127 127> 640 20G<70 70>
VStem: 26 48<423 580 423 603 423 603>
LayerCount: 2
Fore
SplineSet
285 375 m 1xb8
 127 375 l 1
 109 308 78 217 74 106 c 1
 112 121 140 136 161 152 c 1
 219 152 l 1
 174 93 111 53 26 50 c 1
 26 193 59 300 78 375 c 1
 26 423 l 1
 26 603 l 1
 70 660 l 1
 74 654 l 1
 74 632 l 1
 288 727 305 560 265 494 c 1
 262 499 l 1
 248 571 257 660 74 580 c 1
 74 423 l 1
 235 423 l 1
 292 378 l 1
 285 375 l 1xb8
EndSplineSet
EndChar

StartChar: F
Encoding: 70 70 38
Width: 316
GlyphClass: 2
Flags: MW
HStem: 50 21G<25 38 25 25> 50 21G<25 38 25 25> 374 49<73 234 73 284 73 234> 640 20G<69 69>
VStem: 25 48<130.5 139 139 374 423 566 566 580>
LayerCount: 2
Fore
SplineSet
234 423 m 1xb8
 291 378 l 1
 284 374 l 1
 73 374 l 1
 73 139 l 2
 73 122 73 104 63 84 c 0
 55 68 47 60 38 50 c 1
 25 50 l 1
 25 566 l 1
 25 603 l 1
 69 660 l 1
 73 654 l 1
 73 631 l 1
 287 726 304 560 264 494 c 1
 261 499 l 1
 247 570 256 660 73 580 c 1
 73 423 l 1
 234 423 l 1xb8
EndSplineSet
EndChar

StartChar: G
Encoding: 71 71 39
Width: 405
GlyphClass: 2
Flags: MW
HStem: 50 21G<77 77> 50 21G<77 77> 274 48<255 255 255 285>
VStem: 29 44 77 49<106 266 266 274 106 274>
LayerCount: 2
Fore
SplineSet
380 278 m 1xb8
 373 274 l 1
 333 274 l 1
 295 156 213 55 77 50 c 1
 77 274 l 1
 25 322 l 1
 25 350 27 376 29 399 c 2
 29 400 l 1
 38 488 62 548 94 586 c 0
 169 686 283 671 323 620 c 1
 302 612 l 1
 184 676 70 549 73 322 c 1
 124 279 125 275 126 274 c 2
 126 266 l 1
 126 106 l 1
 191 130 247 180 285 274 c 1
 255 274 l 1
 193 322 l 1
 323 322 l 1
 380 278 l 1xb8
EndSplineSet
EndChar

StartChar: H
Encoding: 72 72 40
Width: 336
GlyphClass: 2
Flags: MW
HStem: 50 21G<77 90 77 77 263 276 263 263> 50 21G<77 90 77 77 263 276 263 263> 640 20G<69 69 255 255>
VStem: 25 48<322 603 603 603> 77 48<130.5 139 139 274> 211 48<423 603 603 603> 263 48<130.5 139 139 374>
LayerCount: 2
Fore
SplineSet
311 374 m 1xbe
 311 139 l 2
 311 122 311 104 301 84 c 0
 292 68 285 60 276 50 c 1
 263 50 l 1
 263 374 l 1
 224 374 211 274 125 274 c 1
 125 139 l 2
 125 122 125 104 115 84 c 0
 107 69 99 60 90 50 c 1
 77 50 l 1
 77 274 l 1
 25 322 l 1
 25 603 l 1
 69 660 l 1
 73 653 l 1
 73 322 l 1
 182 300 211 423 211 423 c 1
 211 603 l 1
 255 660 l 1
 259 653 l 1
 259 422 l 1
 311 374 l 1xbe
EndSplineSet
EndChar

StartChar: I
Encoding: 73 73 41
Width: 157
GlyphClass: 2
Flags: MW
HStem: 50 21G<81 93 81 81> 50 21G<81 93 81 81> 640 20G<28 76 76 76>
VStem: 28 48<422 555 555 555> 81 48<130.5 139 139 374>
LayerCount: 2
Fore
SplineSet
81 612 m 1x38
 28 660 l 1
 76 660 l 1
 129 612 l 1
 81 612 l 1x38
129 374 m 1
 129 139 l 2
 129 122 129 104 118 84 c 0
 110 68 102 60 93 50 c 1
 81 50 l 1xb8
 81 374 l 1
 28 422 l 1
 28 555 l 1
 71 610 27 553 71 610 c 1
 76 605 l 1
 76 422 l 1
 129 374 l 1
EndSplineSet
EndChar

StartChar: J
Encoding: 74 74 42
Width: 312
GlyphClass: 2
Flags: MW
HStem: 50 21G<25 144.5> 50 21G<25 144.5> 640 20G<186 235 235 235>
VStem: 186 49<423 555 555 555> 239 48<373 374 374 375 342 375>
LayerCount: 2
Fore
SplineSet
239 612 m 1x38
 186 660 l 1
 235 660 l 1
 287 612 l 1
 239 612 l 1x38
287 370 m 1
 287 342 l 2
 285 224 264 50 25 50 c 1xb8
 25 312 126 364 239 373 c 1
 239 375 l 1
 186 423 l 1
 186 555 l 1
 206 579 207 582 207 582 c 2
 208 582 211 586 229 610 c 1
 235 605 l 1
 235 423 l 1
 287 375 l 1
 287 374 l 1
 287 370 l 1
73 100 m 1
 241 146 230 243 239 322 c 1
 182 322 91 312 73 100 c 1
EndSplineSet
EndChar

StartChar: K
Encoding: 75 75 43
Width: 499
GlyphClass: 2
Flags: MW
HStem: 50 21G<92 105 92 92> 50 21G<92 105 92 92> 274 48<73 92 73 92 141 159> 640 20G<70 70>
VStem: 25 48<322 603 603 603> 92 49<130.5 139 139 274 322 396> 159 49<173 274 173 274>
LayerCount: 2
Fore
SplineSet
465 115 m 1xbe
 474 108 l 1
 396 2 159 32 159 274 c 1
 141 274 l 1
 141 139 l 2
 141 122 141 104 130 84 c 0
 122 68 114 60 105 50 c 1
 92 50 l 1
 92 274 l 1
 25 274 l 1
 25 603 l 1
 70 660 l 1
 73 653 l 1
 73 322 l 1
 92 322 l 1
 92 400 l 1
 92 401 l 1
 97 645 335 715 408 618 c 1
 399 612 l 1
 339 638 145 617 141 396 c 1
 141 322 l 1
 208 322 l 1
 265 278 l 1
 258 274 l 1
 208 274 l 1
 208 72 381 83 465 115 c 1xbe
EndSplineSet
EndChar

StartChar: L
Encoding: 76 76 44
Width: 393
GlyphClass: 2
Flags: MW
HStem: 640 20G<93 93>
VStem: 49 48<274 566 566 603 603 603>
LayerCount: 2
Fore
SplineSet
355 115 m 1
 363 108 l 1
 286 2 49 32 49 274 c 2
 49 566 l 1
 49 603 l 1
 93 660 l 1
 97 654 l 1
 97 274 l 2
 97 72 271 83 355 115 c 1
EndSplineSet
EndChar

StartChar: M
Encoding: 77 77 45
Width: 586
GlyphClass: 2
Flags: MW
HStem: 50 21G<25 38 25 25 269 282 269 269 513 526 513 513> 50 21G<25 38 25 25 269 282 269 269 513 526 513 513> 640 20G<25 25 269 269>
VStem: 25 48<130.5 139 139 604> 269 48<130.5 139 139 274 274 352.5 475 604> 513 48<134 155 155 213.5 134 274>
CounterMasks: 1 1c
LayerCount: 2
Fore
SplineSet
269 475 m 1xbc
 269 660 l 1
 382 642 476 567 522 476 c 0
 557 402 561 288 561 139 c 0
 561 129 561 104 551 84 c 0
 543 68 535 60 526 50 c 1
 513 50 l 1
 513 155 l 1
 513 155 513 258 513 274 c 0
 513 431 446 551 317 604 c 1
 317 139 l 2
 317 122 317 104 307 84 c 0
 298 68 282 50 282 50 c 1
 269 50 l 1
 269 274 l 2
 269 431 178 563 73 604 c 1
 73 139 l 2
 73 122 73 104 63 84 c 0
 54 68 46 60 38 50 c 1
 25 50 l 1
 25 660 l 1
 51 658 111 648 171 604 c 0
 233 558 259 499 269 475 c 1xbc
EndSplineSet
EndChar

StartChar: N
Encoding: 78 78 46
Width: 342
GlyphClass: 2
Flags: MW
HStem: 50 21G<25 38 25 25 269 282 269 269> 50 21G<25 38 25 25 269 282 269 269> 640 20G<25 25>
VStem: 25 48<130.5 139 139 601> 269 48<128 274 274 274>
LayerCount: 2
Fore
SplineSet
25 660 m 1xb8
 321 605 317 446 317 139 c 0
 317 117 317 104 307 84 c 0
 298 68 282 50 282 50 c 1
 269 50 l 1
 269 274 l 1
 262 460 243 548 73 601 c 1
 73 139 l 2
 73 122 73 104 63 84 c 0
 54 68 47 60 38 50 c 1
 25 50 l 1
 25 660 l 1xb8
EndSplineSet
EndChar

StartChar: O
Encoding: 79 79 47
Width: 302
GlyphClass: 2
Flags: MW
HStem: 50 21G<20 151> 50 21G<20 151> 640 20G<216.5 282>
VStem: 20 48<105 309.5 105 331> 234 48<552 603>
LayerCount: 2
Fore
SplineSet
282 660 m 1xb8
 282 444 282 50 20 50 c 1
 20 612 151 660 282 660 c 1xb8
68 105 m 1
 234 182 234 454 234 603 c 1
 177 609 68 514 68 105 c 1
EndSplineSet
EndChar

StartChar: P
Encoding: 80 80 48
Width: 300
GlyphClass: 2
Flags: MW
HStem: 50 21G<25 38 25 25> 50 21G<25 38 25 25> 375 48<73 73> 640 20G<69 69>
VStem: 25 48<131 140 140 375 423 508 574 603 603 603>
LayerCount: 2
Fore
SplineSet
248 621 m 0xb8
 305 544 282 389 73 375 c 1
 73 140 l 2
 73 122 73 104 63 85 c 0
 54 69 47 60 38 50 c 1
 25 50 l 1
 25 566 l 1
 25 603 l 1
 69 660 l 1
 73 654 l 1
 73 574 l 1
 121 680 206 679 248 621 c 0xb8
73 423 m 1
 201 434 254 504 236 612 c 1
 176 626 73 593 73 423 c 1
EndSplineSet
EndChar

StartChar: Q
Encoding: 81 81 49
Width: 596
GlyphClass: 2
Flags: MW
HStem: 50 21G<285 303 285 285> 50 21G<285 303 285 285>
VStem: 24 40 285 18<50 50>
LayerCount: 2
Fore
SplineSet
271 608 m 1xb0
 316 530 321 380 274 256 c 1
 289 219 305 180 305 180 c 1
 303 50 l 1
 285 50 l 1
 236 205 278 72 242 186 c 1
 196 110 124 54 24 50 c 1
 24 647 207 742 271 608 c 1xb0
64 119 m 1
 207 171 272 413 264 566 c 1
 194 625 77 496 64 119 c 1
EndSplineSet
EndChar

StartChar: R
Encoding: 82 82 50
Width: 300
GlyphClass: 2
Flags: MW
HStem: 50 21G<25 38 25 25 227 240 227 227> 50 21G<25 38 25 25 227 240 227 227> 375 48<218 227> 640 20G<69 69>
VStem: 25 48<131 140 140 375 423 508 574 603 603 603> 227 48<130.5 139 139 375 375 375>
LayerCount: 2
Fore
SplineSet
248 621 m 0xbc
 288 568 289 479 218 423 c 1
 275 423 l 1
 275 139 l 2
 275 122 275 104 265 84 c 0
 256 68 249 60 240 50 c 1
 227 50 l 1
 227 375 l 1
 73 375 l 1
 73 140 l 2
 73 122 73 104 63 85 c 0
 54 69 47 60 38 50 c 1
 25 50 l 1
 25 566 l 1
 25 603 l 1
 69 660 l 1
 73 654 l 1
 73 574 l 1
 121 680 206 679 248 621 c 0xbc
236 612 m 1
 176 626 73 593 73 423 c 1
 201 434 254 504 236 612 c 1
EndSplineSet
EndChar

StartChar: S
Encoding: 83 83 51
Width: 352
GlyphClass: 2
Flags: MW
HStem: 50 21G<24 24> 50 21G<24 24> 274 48<202 202 202 232 140 320 140 280>
VStem: 24 50<106 266 266 274 106 274>
LayerCount: 2
Fore
SplineSet
270 322 m 1xb0
 328 278 l 1
 320 274 l 1
 280 274 l 1
 242 156 160 55 24 50 c 1
 24 274 l 1
 72 274 l 1
 74 274 l 1
 74 266 l 1
 74 106 l 1
 138 130 194 180 232 274 c 1
 202 274 l 1
 140 322 l 1
 270 322 l 1xb0
90 557 m 0
 76 533 112 336 182 322 c 1
 140 322 l 1
 -206 680 342 780 272 492 c 1
 222 492 l 1
 248 539 244 581 238 610 c 1
 198 617 120 611 90 557 c 0
EndSplineSet
EndChar

StartChar: T
Encoding: 84 84 52
Width: 331
GlyphClass: 2
Flags: MW
HStem: 50 21G<258 271 258 258> 50 21G<258 271 258 258>
VStem: 205 49<423 596 423 606 423 606> 258 48<130.5 139 139 375>
LayerCount: 2
Fore
SplineSet
306 580 m 1xb0
 287 586 270 591 254 596 c 1
 254 423 l 1
 306 375 l 1
 306 139 l 2
 306 122 306 104 296 84 c 0
 287 69 279 60 271 50 c 1
 258 50 l 1
 258 375 l 1
 205 423 l 1
 205 606 l 1
 62 632 68 559 53 499 c 1
 48 493 l 1
 -6 560 17 726 306 631 c 1
 306 580 l 1xb0
EndSplineSet
EndChar

StartChar: U
Encoding: 85 85 53
Width: 313
GlyphClass: 2
Flags: MW
HStem: 50 21G<66 114 66 66 252 300 252 252> 50 21G<66 114 66 66 252 300 252 252> 640 20G<244 244>
VStem: 14 48<98 269 269 352 352 366 366 366> 200 48<198 592 592 594 594 603 603 603> 252 48<50 150 50 150>
LayerCount: 2
Fore
SplineSet
248 198 m 1xbc
 300 150 l 1
 300 50 l 1
 252 50 l 1
 252 150 l 1
 212 150 200 50 114 50 c 2
 66 50 l 1
 14 98 l 1
 14 352 l 1
 14 366 l 1
 58 423 l 1
 62 416 l 1
 62 269 l 1
 62 98 l 1
 168 76 198 195 200 198 c 2
 200 592 l 1
 200 603 l 1
 244 660 l 1
 248 653 l 1
 248 594 l 1
 248 198 l 1xbc
EndSplineSet
EndChar

StartChar: V
Encoding: 86 86 54
Width: 405
GlyphClass: 2
Flags: MW
HStem: 375 48<32 212 120 120 120 150> 639 20G<376 376>
VStem: 281 46<111 111> 332 48<589 602 602 602>
LayerCount: 2
Fore
SplineSet
380 576 m 1
 380 471 l 1
 327 423 l 1
 327 50 l 1
 192 55 110 257 71 375 c 1
 32 375 l 1
 25 379 l 1
 82 423 l 1
 212 423 l 1
 150 375 l 1
 120 375 l 1
 158 280 219 148 281 111 c 1
 279 423 l 1
 280 423 280 427 331 471 c 1
 332 486 332 589 332 589 c 1
 332 602 l 1
 376 659 l 1
 380 653 l 1
 380 576 l 1
EndSplineSet
EndChar

StartChar: W
Encoding: 87 87 55
Width: 586
GlyphClass: 2
Flags: MW
HStem: 50 21G<25 25 269 320.5 540 559 540 540> 50 21G<25 25 269 320.5 540 559 540 540> 640 20G<60 73 73 73 304 317 317 317 548 561 561 561>
VStem: 25 48<106 571 571 576> 269 48<106 236 236 236 436 570 570 573 573 574 574 582> 513 48<438 521 521 571 571 579.5>
CounterMasks: 1 1c
LayerCount: 2
Fore
SplineSet
527 248 m 1xbc
 536 222 561 152 561 152 c 1
 559 50 l 1
 540 50 l 1
 491 187 l 1
 445 116 372 50 269 50 c 1
 269 236 l 1
 219 134 138 54 25 50 c 1
 25 571 l 2
 25 581 25 606 35 626 c 0
 43 642 51 650 60 660 c 1
 73 660 l 1
 73 106 l 1
 178 147 269 279 269 436 c 2
 269 573 l 1
 269 574 l 2
 269 590 269 607 279 626 c 0
 288 642 304 660 304 660 c 1
 317 660 l 1
 317 570 l 1
 317 106 l 1
 441 153 514 277 513 436 c 2
 513 571 l 2
 513 588 513 606 523 626 c 0
 532 642 539 650 548 660 c 1
 561 660 l 1
 561 521 l 2
 561 355 559 311 527 248 c 1xbc
EndSplineSet
EndChar

StartChar: X
Encoding: 88 88 56
Width: 389
GlyphClass: 2
Flags: MW
HStem: 50 21G<279 292 279 279> 50 21G<279 292 279 279> 323 48<205 205 253 270 253 253> 640 20G<107 107>
VStem: 62 48<371 603 603 603> 136 48<371 477.5> 205 48<301 323 303 323> 279 48<130.5 139 139 323>
LayerCount: 2
Fore
SplineSet
327 326 m 1xbf
 327 323 l 1
 327 139 l 2
 327 122 327 104 317 84 c 0
 308 68 300 60 292 50 c 1
 279 50 l 1
 279 323 l 1
 253 323 l 1
 253 300 l 2
 250 60 79 -7 25 98 c 1
 31 105 l 1
 80 77 201 91 205 303 c 0
 205 311 205 279 205 323 c 1
 124 322 l 1
 62 371 l 1
 62 603 l 1
 107 660 l 1
 110 653 l 1
 110 371 l 1
 136 371 l 1
 135 629 304 730 364 609 c 1
 358 603 l 1
 305 632 184 584 184 371 c 1
 270 371 l 1
 327 326 l 1xbf
EndSplineSet
EndChar

StartChar: Y
Encoding: 89 89 57
Width: 284
GlyphClass: 2
Flags: MW
HStem: 50 21G<210 223 210 210> 50 21G<210 223 210 210> 640 20G<255 255>
VStem: 25 48<323 523 523 523> 211 48<423 603 603 603>
LayerCount: 2
Fore
SplineSet
259 423 m 1xb8
 259 374 l 1
 258 139 l 2
 258 122 258 104 248 84 c 0
 240 69 232 60 223 50 c 1
 210 50 l 1
 211 326 l 1
 193 300 169 274 126 274 c 2
 77 274 l 1
 25 323 l 1
 25 523 l 1
 45 550 49 556 69 580 c 1
 73 574 l 1
 73 323 l 1
 182 300 211 423 211 423 c 1
 211 603 l 1
 231 630 235 636 255 660 c 1
 259 653 l 1
 259 423 l 1xb8
EndSplineSet
EndChar

StartChar: Z
Encoding: 90 90 58
Width: 522
GlyphClass: 2
Flags: MW
HStem: 567 50 640 20G
LayerCount: 2
Fore
SplineSet
491 519 m 1
 491 519 492 530 73 375 c 1
 66 292 119 -24 479 152 c 1
 492 146 l 1
 356 -4 22 -19 24 399 c 0
 24 426 448 551 448 551 c 1
 450 561 l 1
 435 594 106 567 86 567 c 0
 54 568 41 588 24 612 c 1
 26 617 l 1
 59 611 76 626 113 660 c 1
 119 650 127 634 134 617 c 1
 294 617 l 1
 449 617 l 2
 458 618 471 617 481 609 c 0
 509 586 492 524 491 519 c 1
EndSplineSet
EndChar

StartChar: bracketleft
Encoding: 91 91 59
Width: 221
GlyphClass: 2
Flags: MW
HStem: 50 48<73 108 108 116.5 73 196> 612 48<25 29 73 73 73 107 107 115.5>
VStem: 25 48<98 226 226 566 566 612>
LayerCount: 2
Fore
SplineSet
196 63 m 1
 196 50 l 1
 25 50 l 1
 25 566 l 1
 25 612 l 1
 25 660 l 1
 29 660 l 1
 107 660 l 2
 124 660 142 660 162 650 c 0
 178 641 186 634 196 625 c 1
 196 612 l 1
 73 612 l 1
 73 226 l 1
 73 98 l 1
 108 98 l 2
 125 98 142 98 162 88 c 0
 178 80 186 72 196 63 c 1
EndSplineSet
EndChar

StartChar: backslash
Encoding: 92 92 60
Width: 319
GlyphClass: 2
Flags: MW
HStem: 50 21G<279 294 279 279> 50 21G<279 294 279 279> 640 20G<25 34 34 34>
VStem: 25 269
LayerCount: 2
Fore
SplineSet
25 660 m 1xb0
 34 660 l 1
 62 643 60 645 89 626 c 1
 91 619 294 50 294 50 c 1
 279 50 l 1
 268 57 257 62 244 75 c 0
 227 90 221 108 215 125 c 2
 25 660 l 1xb0
EndSplineSet
EndChar

StartChar: bracketright
Encoding: 93 93 61
Width: 221
GlyphClass: 2
Flags: MW
HStem: 50 48<113 148 113 196> 612 48<114 148 114 196>
VStem: 148 48<98 226 226 350 350 566 566 612 50 612>
LayerCount: 2
Fore
SplineSet
25 63 m 1
 35 72 43 80 59 88 c 0
 79 98 96 98 113 98 c 2
 148 98 l 1
 148 226 l 1
 148 350 l 1
 148 612 l 1
 25 612 l 1
 25 625 l 1
 35 634 43 641 59 650 c 0
 79 660 97 660 114 660 c 2
 192 660 l 1
 196 660 l 1
 196 612 l 1
 196 566 l 1
 196 50 l 1
 25 50 l 1
 25 63 l 1
EndSplineSet
EndChar

StartChar: asciicircum
Encoding: 94 94 62
Width: 156
GlyphClass: 2
Flags: MW
HStem: 568 93<33 92 33 92 64 123 64 118>
VStem: 26 102
LayerCount: 2
Fore
SplineSet
128 599 m 2
 130 595 132 591 130 585 c 0
 128 579 125 573 123 568 c 1
 118 568 l 1
 78 637 l 1
 38 568 l 1
 33 568 l 1
 31 573 28 579 26 585 c 0
 24 591 26 595 28 599 c 2
 39 617 l 2
 44 626 51 639 54 643 c 2
 64 661 l 1
 92 661 l 1
 102 643 l 2
 105 639 112 626 117 617 c 2
 128 599 l 2
EndSplineSet
EndChar

StartChar: underscore
Encoding: 95 95 63
Width: 465
GlyphClass: 2
Flags: MW
HStem: 49 49<82 119 82 82 119 220 220 264 264 351 351 359.5>
LayerCount: 2
Fore
SplineSet
220 98 m 1
 264 98 l 1
 351 98 l 2
 368 98 386 98 406 87 c 0
 422 79 430 71 440 62 c 1
 440 49 l 1
 119 49 l 1
 82 49 l 1
 55 69 49 74 25 94 c 1
 32 98 l 1
 220 98 l 1
EndSplineSet
EndChar

StartChar: grave
Encoding: 96 96 64
Width: 103
GlyphClass: 2
Flags: MW
HStem: 568 93<25 70 25 65>
VStem: 25 50<599 661>
LayerCount: 2
Fore
SplineSet
75 599 m 2
 77 595 79 591 77 585 c 0
 75 579 72 573 70 568 c 1
 65 568 l 1
 25 637 l 1
 25 661 l 1
 39 661 l 1
 49 643 l 2
 52 639 59 626 64 617 c 2
 75 599 l 2
EndSplineSet
EndChar

StartChar: a
Encoding: 97 97 65
Width: 364
GlyphClass: 2
Flags: MW
HStem: 50 21G<25 87.5 291 291 291 339> 50 21G<25 87.5 291 291 291 339> 378 20G<221.5 287>
VStem: 25 48<102 210> 239 48<322.5 365> 291 48<50 141 141 141>
LayerCount: 2
Fore
SplineSet
250 166 m 2xbc
 250 167 250 167 249 168 c 1
 215 101 150 50 25 50 c 1
 25 370 156 398 287 398 c 1
 287 392 l 1
 287 184 l 1
 339 148 l 1
 339 50 l 1
 291 50 l 1
 291 141 l 1
 250 166 l 2xbc
73 102 m 1
 239 145 239 280 239 365 c 1
 182 369 73 335 73 102 c 1
EndSplineSet
EndChar

StartChar: b
Encoding: 98 98 66
Width: 328
GlyphClass: 2
Flags: MW
HStem: 50 21G<25 25> 50 21G<25 25> 640 20G<69 69>
VStem: 25 48<286 603 603 603>
LayerCount: 2
Fore
SplineSet
265 375 m 1xb0
 350 295 299 55 25 50 c 1
 25 52 l 1
 25 603 l 1
 69 660 l 1
 73 653 l 1
 73 286 l 1
 132 395 223 424 265 375 c 1xb0
73 101 m 1
 257 138 259 268 259 352 c 1
 163 372 92 316 73 101 c 1
EndSplineSet
EndChar

StartChar: c
Encoding: 99 99 67
Width: 278
GlyphClass: 2
Flags: MW
VStem: 25 48<224 224>
LayerCount: 2
Fore
SplineSet
73 224 m 0
 73 96 194 67 247 84 c 1
 253 80 l 1
 193 8 24 68 25 224 c 0
 24 379 193 440 253 367 c 1
 247 363 l 1
 194 381 73 352 73 224 c 0
EndSplineSet
EndChar

StartChar: d
Encoding: 100 100 68
Width: 328
GlyphClass: 2
Flags: MW
HStem: 50 21G<303 303> 50 21G<303 303> 640 20G<259 259>
VStem: 255 48<286 603>
LayerCount: 2
Fore
SplineSet
303 50 m 1xb0
 29 55 -22 295 63 375 c 1
 105 424 196 395 255 286 c 1
 255 653 l 1
 259 660 l 1
 303 603 l 1
 303 52 l 1
 303 50 l 1xb0
69 352 m 1
 69 268 71 138 255 101 c 1
 236 316 165 372 69 352 c 1
EndSplineSet
EndChar

StartChar: e
Encoding: 101 101 69
Width: 358
GlyphClass: 2
Flags: MW
HStem: 51 53 178 52<25 52> 352 46<269 279>
VStem: 70 48<179 236 224 233 233 236 223 319 325 326>
LayerCount: 2
Fore
SplineSet
329 185 m 1
 333 178 l 1
 333 128 l 2
 330 119 325 112 317 100 c 0
 290 63 246 47 203 51 c 1
 152 50 103 81 82 132 c 0
 76 146 71 162 70 179 c 1
 52 178 l 1
 25 230 l 1
 70 224 l 1
 70 233 l 1
 70 319 l 2
 70 333 72 348 80 364 c 0
 89 379 97 388 105 398 c 1
 113 398 l 1
 114 398 l 1
 118 398 l 1
 118 335 l 1
 118 325 l 1
 119 326 l 2
 179 389 251 398 287 398 c 0
 322 398 341 227 120 184 c 1
 120 180 l 2
 120 171 122 163 124 156 c 0
 129 139 139 126 150 116 c 0
 150 115 151 115 151 115 c 2
 152 115 152 114 153 114 c 1
 153 113 154 113 154 112 c 1
 155 112 l 2
 156 111 158 110 160 109 c 2
 160 108 l 1
 161 108 162 107 163 107 c 2
 163 107 163 106 164 106 c 2
 164 106 165 106 165 105 c 1
 166 105 166 105 167 104 c 2
 168 104 l 1
 205 85 255 92 285 128 c 2
 329 185 l 1
279 352 m 1
 234 352 133 331 118 236 c 1
 118 223 l 1
 177 212 265 260 279 352 c 1
EndSplineSet
EndChar

StartChar: f
Encoding: 102 102 70
Width: 325
GlyphClass: 2
Flags: MW
HStem: 50 21G<113 126 113 113> 50 21G<113 126 113 113> 398 48<104.5 113 161 243> 612 48<166 181>
VStem: 113 48<130.5 139 139 398 446 491.5>
LayerCount: 2
Fore
SplineSet
300 402 m 1xb8
 293 398 l 1
 161 398 l 1
 161 139 l 2
 161 122 161 104 151 84 c 0
 143 68 135 60 126 50 c 1
 113 50 l 1
 113 398 l 1
 96 398 79 398 59 408 c 0
 44 416 35 424 25 433 c 1
 25 446 l 1
 113 446 l 1
 113 612 l 1
 166 660 l 1
 214 660 l 1
 214 660 214 573 275 555 c 1
 275 512 l 1
 189 512 200 612 162 612 c 1
 162 612 161 537 161 446 c 1
 243 446 l 1
 269 426 276 422 300 402 c 1xb8
EndSplineSet
EndChar

StartChar: g
Encoding: 103 103 71
Width: 364
GlyphClass: 2
Flags: MW
HStem: 49 21G<25 87.5 291 291 339 339> 49 21G<25 87.5 291 291 339 339> 378 20G<221.5 287>
VStem: 25 49 238 49 291 48<19 49 21 49 48 49 49 140 140 140>
LayerCount: 2
Fore
SplineSet
339 147 m 1xbc
 339 49 l 1
 339 33 l 1
 333 -138 232 -263 145 -166 c 1
 145 -165 l 1
 81 -24 168 66 291 48 c 1
 291 49 l 1x7c
 291 140 l 1
 250 166 l 1
 250 166 250 167 249 167 c 0
 215 100 150 49 25 49 c 1
 25 50 l 2
 25 370 156 398 287 398 c 1
 287 397 l 1
 287 392 l 1
 287 391 l 1
 287 184 l 1
 339 148 l 1
 339 147 l 1xbc
279 -81 m 0
 287 -62 290 6 291 19 c 2
 291 21 l 1
 243 13 153 -17 156 -112 c 0
 157 -124 159 -136 163 -148 c 1
 191 -154 246 -156 279 -81 c 0
74 101 m 1
 221 140 237 252 238 336 c 0
 239 346 239 356 239 364 c 1
 232 365 226 365 218 364 c 0
 161 355 79 294 74 101 c 1
EndSplineSet
EndChar

StartChar: h
Encoding: 104 104 72
Width: 260
GlyphClass: 2
Flags: MW
HStem: 50 21G<25 38 25 25 187 200 187 187> 50 21G<25 38 25 25 187 200 187 187> 350 48<167.5 183 134 187> 640 20G<69 69>
VStem: 25 48<130.5 139 139 250 293 566 566 588 588 588> 187 48<130.5 139 139 350>
LayerCount: 2
Fore
SplineSet
183 398 m 1xbc
 235 350 l 1
 235 139 l 2
 235 122 235 104 225 84 c 0
 216 68 208 60 200 50 c 1
 187 50 l 1
 187 350 l 1
 148 350 159 250 73 250 c 1
 73 139 l 2
 73 122 73 104 63 84 c 0
 55 68 47 60 38 50 c 1
 25 50 l 1
 25 250 l 1
 25 566 l 1
 25 588 l 1
 42 615 54 636 69 660 c 1
 73 653 l 1
 73 293 l 1
 134 311 134 398 134 398 c 1
 183 398 l 1xbc
EndSplineSet
EndChar

StartChar: i
Encoding: 105 105 73
Width: 271
GlyphClass: 2
Flags: MW
HStem: 50 48<142 157 142 142> 378 20G<89 102 102 102> 430 46<34 68 20 82 132 165 34 117> 497 46<100 134 86 149>
VStem: 90 48<98 98>
LayerCount: 2
Fore
SplineSet
134 497 m 1
 86 497 l 1
 100 543 l 1
 149 543 l 1
 134 497 l 1
165 430 m 1
 117 430 l 1
 132 476 l 1
 180 476 l 1
 165 430 l 1
68 430 m 1
 20 430 l 1
 34 476 l 1
 82 476 l 1
 68 430 l 1
138 98 m 1
 176 98 166 198 251 198 c 1
 251 155 l 1
 190 137 190 50 190 50 c 1
 142 50 l 1
 90 98 l 1
 89 398 l 1
 102 398 l 1
 111 388 119 379 127 364 c 0
 138 344 138 326 138 309 c 2
 138 98 l 1
EndSplineSet
EndChar

StartChar: j
Encoding: 106 106 74
Width: 266
GlyphClass: 2
Flags: MW
HStem: 378 20G<184 184> 432 46<148 148 148 181 133 196> 512 46<148 148 148 181 133 196>
VStem: 141 48<184 184 184 206 206 343 343 343> 193 48<19 148 21 148 48 141 141 141>
LayerCount: 2
Fore
SplineSet
148 432 m 1
 133 478 l 1
 181 478 l 1
 196 432 l 1
 148 432 l 1
148 512 m 1
 133 558 l 1
 181 558 l 1
 196 512 l 1
 148 512 l 1
189 184 m 1
 241 148 l 1
 241 33 l 1
 235 -138 134 -263 46 -166 c 1
 -17 -24 70 66 193 48 c 1
 193 141 l 1
 141 171 l 1
 141 343 l 1
 160 367 162 370 162 370 c 1
 162 370 165 374 184 398 c 1
 189 393 l 1
 189 206 l 1
 189 184 l 1
181 -81 m 0
 189 -62 192 6 193 19 c 2
 193 21 l 1
 145 13 55 -17 58 -112 c 0
 58 -124 61 -136 65 -148 c 1
 93 -155 148 -156 181 -81 c 0
EndSplineSet
EndChar

StartChar: k
Encoding: 107 107 75
Width: 260
GlyphClass: 2
Flags: MW
HStem: 50 21G<25 38 25 25 187 200 187 187> 50 21G<25 38 25 25 187 200 187 187> 350 48<167.5 183 134 187> 509 48<167.5 183 134 187 134 235> 640 20G<69 69>
VStem: 25 48<130.5 139 139 250 293 409 453 566 566 588 588 588> 187 48<130.5 139 139 350>
LayerCount: 2
Fore
SplineSet
235 350 m 1xbe
 235 139 l 2
 235 122 235 104 225 84 c 0
 216 68 208 60 200 50 c 1
 187 50 l 1
 187 350 l 1
 148 350 159 250 73 250 c 1
 73 139 l 2
 73 122 73 104 63 84 c 0
 55 68 47 60 38 50 c 1
 25 50 l 1
 25 250 l 1
 25 409 l 1
 25 566 l 1
 25 588 l 1
 42 614 54 636 69 660 c 1
 73 653 l 1
 73 453 l 1
 134 471 134 557 134 557 c 1
 183 557 l 1
 235 509 l 1
 187 509 l 2
 148 509 159 409 73 409 c 1
 73 293 l 1
 134 311 134 398 134 398 c 1
 183 398 l 1
 235 350 l 1xbe
EndSplineSet
EndChar

StartChar: l
Encoding: 108 108 76
Width: 98
GlyphClass: 2
Flags: MW
HStem: 50 21G<25 38 25 25> 50 21G<25 38 25 25> 640 20G<69 69>
VStem: 25 48<130.5 139 139 350 350 566 566 603 603 603>
LayerCount: 2
Fore
SplineSet
73 350 m 1xb0
 73 139 l 2
 73 122 73 104 63 84 c 0
 54 68 47 60 38 50 c 1
 25 50 l 1
 25 566 l 1
 25 603 l 1
 45 630 49 636 69 660 c 1
 73 653 l 1
 73 350 l 1xb0
EndSplineSet
EndChar

StartChar: m
Encoding: 109 109 77
Width: 434
GlyphClass: 2
Flags: MW
HStem: 50 21G<38 51 38 38 199 200 199 199 200 205 205 206 206 208 208 212 360 374 360 360> 50 21G<38 51 38 38 199 200 199 199 200 205 205 206 206 208 208 212 360 374 360 360> 378 20G<33 50 50 50 195 211 211 211>
VStem: 38 48<130.5 139 139 227> 199 49<138 139 139 214 214 229 229 237> 360 49<130.5 139 139 158 158 229>
LayerCount: 2
Fore
SplineSet
350 379 m 0xbc
 383 350 409 293 409 229 c 2
 409 158 l 1
 409 139 l 2
 409 122 404 103 394 83 c 0
 386 68 382 60 374 50 c 1
 360 50 l 1
 360 242 l 2
 360 304 315 351 291 351 c 0
 270 352 250 297 248 237 c 2
 248 229 l 1
 248 139 l 2
 248 137 247 135 247 133 c 0
 247 118 246 102 237 84 c 0
 230 70 223 62 215 54 c 0
 214 52 213 51 212 50 c 2
 208 50 l 1
 206 50 l 1
 205 50 l 1
 200 50 l 1
 199 50 l 1
 199 214 l 1
 199 242 l 2
 199 304 154 351 129 351 c 0
 108 352 86 290 86 227 c 2
 86 139 l 2
 86 122 86 104 76 84 c 0
 67 68 60 60 51 50 c 1
 38 50 l 1
 38 328 l 1
 25 349 l 1
 33 398 l 1
 50 398 l 1
 60 391 70 368 86 350 c 1
 114 408 156 408 190 378 c 1
 191 384 193 391 195 398 c 1
 211 398 l 1
 222 391 231 368 247 350 c 1
 266 389 291 402 316 397 c 0
 328 394 339 388 350 379 c 0xbc
EndSplineSet
EndChar

StartChar: n
Encoding: 110 110 78
Width: 273
GlyphClass: 2
Flags: MW
HStem: 50 21G<38 43 38 38 43 44 44 51 199 212 199 199> 50 21G<38 43 38 38 43 44 44 51 199 212 199 199> 351 46
VStem: 38 48<130.5 139 139 226> 199 49<130.5 139 139 158 158 229>
LayerCount: 2
Fore
SplineSet
56 111 m 1x38
 56 115 56 115 56 114 c 2
 56 113 l 1
 56 112 l 1
 56 111 l 1x38
248 229 m 2
 248 158 l 1
 248 139 l 2
 248 122 243 103 233 83 c 0
 224 68 221 60 212 50 c 1
 199 50 l 1
 199 242 l 2
 199 304 154 350 130 351 c 2
 129 351 l 1
 128 351 l 1
 106 347 86 288 86 226 c 2
 86 139 l 2
 86 122 86 104 76 84 c 0
 68 68 60 60 51 50 c 1
 44 50 l 1
 43 50 l 1
 38 50 l 1xb8
 38 283 l 1
 38 328 l 1
 25 349 l 1
 33 397 l 1
 50 397 l 1
 61 390 70 368 86 350 c 1
 90 358 95 365 99 371 c 0
 112 388 126 396 141 397 c 2
 142 397 l 1
 144 397 l 1
 145 397 l 1
 146 397 l 1
 147 397 l 1
 148 397 l 1
 149 397 l 1
 150 397 l 1
 151 397 l 1
 152 397 l 1
 153 397 l 1
 153 397 154 397 154 396 c 1
 156 396 l 1
 157 396 l 2
 158 396 158 395 159 395 c 2
 160 395 l 2
 167 393 174 389 181 384 c 0
 218 358 248 297 248 229 c 2
EndSplineSet
EndChar

StartChar: o
Encoding: 111 111 79
Width: 312
GlyphClass: 2
Flags: MW
HStem: 50 21G<25 87.5> 50 21G<25 87.5> 378 20G<221.5 287>
VStem: 25 48<102 210>
LayerCount: 2
Fore
SplineSet
287 392 m 1xb0
 287 392 287 231 249 168 c 0
 220 119 150 50 25 50 c 1
 25 370 156 398 287 398 c 1
 287 392 l 1xb0
73 102 m 1
 239 146 239 280 239 365 c 1
 182 369 73 335 73 102 c 1
EndSplineSet
EndChar

StartChar: p
Encoding: 112 112 80
Width: 328
GlyphClass: 2
Flags: MW
HStem: 377 20G<25 25>
VStem: 25 48<-143 161 -193 395>
LayerCount: 2
Fore
SplineSet
25 397 m 1
 299 392 350 152 265 73 c 1
 223 24 132 53 73 161 c 1
 73 -193 l 1
 69 -200 l 1
 25 -143 l 1
 25 395 l 1
 25 397 l 1
259 95 m 1
 259 179 257 309 73 346 c 1
 92 132 163 76 259 95 c 1
EndSplineSet
EndChar

StartChar: q
Encoding: 113 113 81
Width: 328
GlyphClass: 2
Flags: MW
HStem: 377 20G<303 303>
VStem: 255 48<-143 161 161 161>
LayerCount: 2
Fore
SplineSet
63 73 m 1
 -22 152 29 392 303 397 c 1
 303 395 l 1
 303 -143 l 1
 259 -200 l 1
 255 -193 l 1
 255 161 l 1
 196 53 105 24 63 73 c 1
255 347 m 1
 71 309 69 179 69 95 c 1
 165 76 236 132 255 347 c 1
EndSplineSet
EndChar

StartChar: r
Encoding: 114 114 82
Width: 212
GlyphClass: 2
Flags: MW
HStem: 50 21G<25 38 25 25> 50 21G<25 38 25 25> 350 48<78 93>
VStem: 25 48<130.5 139 130.5 350>
LayerCount: 2
Fore
SplineSet
74 350 m 1xb0
 73 139 l 2
 73 122 73 104 63 84 c 0
 55 68 47 60 38 50 c 1
 25 50 l 1
 25 350 l 1
 78 398 l 1
 126 398 l 1
 126 398 126 311 187 293 c 1
 187 249 l 1
 102 249 112 350 74 350 c 1xb0
EndSplineSet
EndChar

StartChar: s
Encoding: 115 115 83
Width: 265
GlyphClass: 2
Flags: MW
VStem: 196 43<187 211 189 211 192 211>
LayerCount: 2
Fore
SplineSet
209 238 m 0
 223 241 235 251 239 211 c 0
 239 206 238 201 238 197 c 0
 223 -8 61 47 26 95 c 1
 33 95 l 1
 99 76 195 69 196 187 c 2
 196 189 l 1
 196 192 l 2
 195 194 195 197 193 199 c 0
 184 213 163 212 26 212 c 1
 26 226 26 239 27 251 c 0
 43 456 205 401 239 353 c 1
 233 353 l 1
 166 372 74 378 73 261 c 0
 73 214 154 225 209 238 c 0
EndSplineSet
EndChar

StartChar: t
Encoding: 116 116 84
Width: 325
GlyphClass: 2
Flags: MW
HStem: 50 48<166 181 166 166> 397 48<104.5 113 104.5 113 161 243> 640 20G<113 126 126 126>
VStem: 113 48<352 397 352 397 352 397 445 571>
LayerCount: 2
Fore
SplineSet
300 442 m 1
 276 421 269 417 243 397 c 1
 161 397 l 1
 161 307 162 98 162 98 c 1
 200 98 189 198 275 198 c 1
 275 154 l 1
 214 136 214 50 214 50 c 1
 166 50 l 1
 113 98 l 1
 113 397 l 1
 25 397 l 1
 25 410 l 1
 35 419 44 427 59 435 c 0
 79 445 96 445 113 445 c 1
 113 660 l 1
 126 660 l 1
 135 650 143 642 151 626 c 0
 161 606 161 588 161 571 c 2
 161 445 l 1
 293 445 l 1
 300 442 l 1
EndSplineSet
EndChar

StartChar: u
Encoding: 117 117 85
Width: 336
GlyphClass: 2
Flags: MW
HStem: 51 43 378 20G<69 69 255 255>
VStem: 25 48<94 346 346 346> 211 48<184 346 346 346> 263 48<50 141 141 141>
LayerCount: 2
Fore
SplineSet
263 50 m 1
 263 141 l 1
 225 141 211 51 126 51 c 2
 77 51 l 1
 25 94 l 1
 25 346 l 1
 45 370 49 376 69 398 c 1
 73 392 l 1
 73 94 l 1
 182 74 211 184 211 184 c 1
 211 346 l 1
 231 370 235 376 255 398 c 1
 259 392 l 1
 259 184 l 1
 311 148 l 1
 311 50 l 1
 263 50 l 1
EndSplineSet
EndChar

StartChar: v
Encoding: 118 118 86
Width: 425
GlyphClass: 2
Flags: MW
HStem: 50 21G<339 339> 50 21G<339 339> 349 48<30 212 120 120 120 149>
VStem: 290 49<111 111>
LayerCount: 2
Fore
SplineSet
289 349 m 1xb0
 352 397 l 1
 400 397 l 1
 339 349 l 1
 339 50 l 1
 203 58 109 231 71 349 c 1
 30 349 l 1
 25 353 l 1
 82 397 l 1
 212 397 l 1
 149 349 l 1
 120 349 l 1
 163 249 219 148 290 111 c 1
 289 349 l 1xb0
EndSplineSet
EndChar

StartChar: w
Encoding: 119 119 87
Width: 645
GlyphClass: 2
Flags: MW
HStem: 349 48<30 212 120 120 120 150 82 250 82 289 340 340 340 352 352 369>
VStem: 290 49<111 111> 510 49<111 111>
LayerCount: 2
Fore
SplineSet
572 397 m 1
 620 397 l 1
 559 349 l 1
 559 50 l 1
 464 55 389 142 339 234 c 1
 339 50 l 1
 204 58 110 231 71 349 c 1
 30 349 l 1
 25 353 l 1
 82 397 l 1
 212 397 l 1
 150 349 l 1
 120 349 l 1
 163 249 220 148 290 111 c 1
 289 349 l 1
 250 349 l 1
 245 353 l 1
 302 397 l 1
 352 397 l 1
 400 397 l 1
 432 397 l 1
 369 349 l 1
 340 349 l 1
 383 249 439 148 510 111 c 1
 509 349 l 1
 572 397 l 1
EndSplineSet
EndChar

StartChar: x
Encoding: 120 120 88
Width: 315
GlyphClass: 2
Flags: MW
HStem: 50 21G<242 255 242 242> 50 21G<242 255 242 242> 189 48<87 109 87 87 157 159 207 233 207 207> 377 20G<70 70>
VStem: 25 48<237 342 342 342.5> 109 48<237 255 237 256 237 320> 159 48<189 189> 242 48<130.5 139 139 189>
LayerCount: 2
Fore
SplineSet
290 193 m 1xbf
 290 189 l 1
 290 139 l 2
 290 122 290 104 280 84 c 0
 271 68 263 60 255 50 c 1
 242 50 l 1
 242 189 l 1
 207 189 l 1
 206 61 85 12 25 81 c 1
 32 85 l 1
 84 68 158 69 159 189 c 1
 142 189 l 1
 87 189 l 1
 25 237 l 1
 25 342 l 2
 25 343 26 344 26 345 c 2
 70 397 l 1
 73 393 l 1
 73 391 l 1
 73 237 l 1
 109 237 l 1
 109 256 l 2
 109 384 230 435 290 366 c 1
 283 363 l 1
 230 379 157 376 157 255 c 2
 157 237 l 1
 233 237 l 1
 290 193 l 1xbf
EndSplineSet
EndChar

StartChar: y
Encoding: 121 121 89
Width: 336
GlyphClass: 2
Flags: MW
HStem: 51 43 378 20G<255 255>
VStem: 25 48<94 274 274 274> 211 48<184 346 346 346> 263 48<19 148 21 148 48 141 141 141>
LayerCount: 2
Fore
SplineSet
259 184 m 1
 311 148 l 1
 311 33 l 1
 305 -138 204 -263 117 -166 c 1
 53 -24 140 66 263 48 c 1
 263 141 l 1
 225 141 211 51 126 51 c 2
 77 51 l 1
 25 94 l 1
 25 274 l 1
 45 299 49 304 69 326 c 1
 73 320 l 1
 73 94 l 1
 182 74 211 184 211 184 c 1
 211 346 l 1
 231 370 235 376 255 398 c 1
 259 392 l 1
 259 184 l 1
135 -148 m 1
 163 -155 218 -156 251 -81 c 0
 259 -62 262 6 263 19 c 2
 263 21 l 1
 215 13 125 -17 128 -112 c 0
 129 -124 131 -136 135 -148 c 1
EndSplineSet
EndChar

StartChar: z
Encoding: 122 122 90
Width: 316
GlyphClass: 2
Flags: MW
HStem: 338 35<26 64.5> 377 20G
VStem: 275 16
LayerCount: 2
Fore
SplineSet
277 100 m 1
 291 88 l 1
 215 23 31 27 31 242 c 0
 31 301 251 324 275 335 c 1
 275 341 l 1
 267 359 70 338 59 338 c 0
 40 338 34 356 25 370 c 1
 26 373 l 1
 45 370 54 378 75 397 c 1
 79 391 83 383 88 373 c 1
 179 373 l 1
 267 373 l 2
 302 375 288 340 291 317 c 1
 261 294 78 265 73 219 c 0
 58 90 207 85 277 100 c 1
EndSplineSet
EndChar

StartChar: asciitilde
Encoding: 126 126 91
Width: 394
GlyphClass: 2
Flags: MW
HStem: 361 22
VStem: 329 38<319 320>
LayerCount: 2
Fore
SplineSet
89 276 m 0
 80 262 65 234 65 234 c 1
 27 234 l 1
 25 236 l 1
 60 297 90 333 114 363 c 0
 123 374 130 378 136 380 c 0
 143 383 149 384 155 383 c 0
 165 381 175 376 179 367 c 0
 205 312 226 280 241 264 c 0
 253 250 266 238 279 235 c 0
 282 234 289 239 298 247 c 0
 314 264 323 291 329 320 c 2
 333 338 l 1
 369 330 l 1
 367 319 l 2
 355 266 338 240 319 225 c 0
 305 217 282 214 256 220 c 0
 226 226 197 263 171 315 c 1
 155 311 l 1
 147 361 l 1
 146 361 l 1
 125 332 106 304 89 276 c 0
EndSplineSet
EndChar

StartChar: gh
Encoding: 65537 -1 92
Width: 433
GlyphClass: 3
Flags: MW
HStem: 397 40<158.055 159.055 159.055 303.055>
VStem: 34.0547 56<267.5 397 267.5 402>
LayerCount: 2
Fore
SplineSet
342.0546875 114 m 1
 351.0546875 108 l 1
 269.0546875 -4 34.0546875 24 34.0546875 388 c 0
 34.0546875 416 59.0546875 432 93.0546875 437 c 1
 62.0546875 491 50.0546875 532 67.0546875 571 c 0
 76.0546875 592 95.0546875 617 120.0546875 635 c 0
 157.0546875 661 198.0546875 667 232.0546875 652 c 0
 273.0546875 634 295.0546875 599 307.0546875 547 c 1
 295.0546875 541 l 1
 276.0546875 563 254.0546875 578 229.0546875 589 c 0
 177.0546875 612 123.0546875 603 115.0546875 584 c 0
 105.0546875 562 97.0546875 540 116.0546875 505 c 0
 125.0546875 491 145.0546875 456 158.0546875 437 c 1
 159.0546875 437 l 1
 349.0546875 437 l 1
 350.0546875 434 l 1
 303.0546875 397 l 1
 90.0546875 397 l 1
 90.0546875 138 185.0546875 59 342.0546875 114 c 1
194.0546875 686 m 1
 153.0546875 719 l 1
 191.0546875 719 l 1
 232.0546875 686 l 1
 194.0546875 686 l 1
EndSplineSet
Ligature2: "'liga' Standard Ligatures in Latin lookup 0 subtable" g H
Ligature2: "'liga' Standard Ligatures in Latin lookup 0 subtable" g h
Ligature2: "'liga' Standard Ligatures in Latin lookup 0 subtable" G h
Ligature2: "'liga' Standard Ligatures in Latin lookup 0 subtable" G H
EndChar

StartChar: kh
Encoding: 65538 -1 93
Width: 366
GlyphClass: 3
Flags: MW
HStem: 622 38<161 161>
VStem: 25 55<267.5 388>
LayerCount: 2
Fore
SplineSet
80 397 m 1
 80 138 183 56 332 114 c 1
 341 108 l 1
 259 -4 25 24 25 388 c 1
 34 463 255 437 255 437 c 1
 245 495 253 617 161 622 c 0
 134 621 107 620 76 619 c 1
 76 617 l 1
 87 593 106 591 119 593 c 1
 126 591 l 1
 113 581 100 572 88 562 c 1
 70 562 51 573 39 583 c 0
 38 584 37 584 37 585 c 0
 23 597 23 611 28 624 c 0
 31 631 40 638 50 645 c 0
 59 650 73 656 103 657 c 0
 120 658 136 659 153 660 c 2
 154 660 l 1
 158 660 l 1
 160 660 l 1
 302 656 283 498 299 437 c 1
 339 437 l 1
 341 434 l 1
 292 397 342 434 293 397 c 1
 80 397 l 1
163 686 m 1
 122 719 l 1
 160 719 l 1
 201 686 l 1
 163 686 l 1
EndSplineSet
Ligature2: "'liga' Standard Ligatures in Latin lookup 0 subtable" k H
Ligature2: "'liga' Standard Ligatures in Latin lookup 0 subtable" k h
Ligature2: "'liga' Standard Ligatures in Latin lookup 0 subtable" K h
Ligature2: "'liga' Standard Ligatures in Latin lookup 0 subtable" K H
EndChar
